<svg xmlns="http://www.w3.org/2000/svg" viewBox="0 0 412.25 407.44"><defs><style>.cls-1,.cls-3{fill:#d2ebff;}.cls-1{opacity:0.56;}.cls-2{fill:#489bff;}.cls-4{fill:#073a93;}.cls-5{fill:#1858b5;}.cls-6{fill:#063272;opacity:0.45;}.cls-7{fill:#e6e6e6;}.cls-8{fill:#f49290;}.cls-9{fill:#ffb5b1;}.cls-10{fill:#89caf7;}.cls-11{fill:#accfe5;}.cls-12{fill:#ffaa45;}</style></defs><g id="OBJECTS"><ellipse class="cls-1" cx="203.59" cy="373.56" rx="198.06" ry="33.88"/><path class="cls-2" d="M254.51,373.52c-69.47-14.62-122.4-66-153.08-148.63C79.58,166.05,76.61,111.6,76.49,109.31L75.3,85.76,261,20.11,446.74,85.76l-1.19,23.55c-.12,2.29-3.08,56.74-24.94,115.58C389.93,307.5,337,358.9,267.54,373.52L261,374.9Z" transform="translate(-68.87 -20.11)"/><path class="cls-3" d="M408.13,111.16,261,59.17h0l-147.1,52s10,197,147.1,225.9h0C398.16,308.18,408.13,111.16,408.13,111.16Z" transform="translate(-68.87 -20.11)"/><polygon class="cls-4" points="191.78 296.92 259.23 287.28 318.53 287.28 371.52 297.66 280.36 343.61 191.78 296.92"/><path class="cls-4" d="M384.48,365.58S265.14,300,251.06,321.47c-20.34,31.06,10.75,46.7,121.56,76.35Z" transform="translate(-68.87 -20.11)"/><path class="cls-5" d="M417.37,398.36h0a14,14,0,0,0-7.57-18.27l-27.56-11.42-10.7,25.85,27.56,11.41A14,14,0,0,0,417.37,398.36Z" transform="translate(-68.87 -20.11)"/><path class="cls-2" d="M380.5,372.84l20.85,8.64A9.48,9.48,0,1,1,394.1,399l-20.85-8.64Z" transform="translate(-68.87 -20.11)"/><path class="cls-6" d="M373.35,390.16l27.55,11.41a14,14,0,0,0,17.15-5.48,13.69,13.69,0,0,1-.68,2.27,14,14,0,0,1-18.27,7.57l-27.56-11.41Z" transform="translate(-68.87 -20.11)"/><path class="cls-7" d="M382.47,390.59l4.4-10.64a1.06,1.06,0,0,1,1.38-.57h0a1.07,1.07,0,0,1,.57,1.38l-4.41,10.64A1.06,1.06,0,0,1,383,392h0A1.06,1.06,0,0,1,382.47,390.59Z" transform="translate(-68.87 -20.11)"/><path class="cls-7" d="M389,393.28l4.41-10.64a1.06,1.06,0,0,1,1.38-.57h0a1.06,1.06,0,0,1,.57,1.38l-4.41,10.63a1,1,0,0,1-1.37.57h0A1.05,1.05,0,0,1,389,393.28Z" transform="translate(-68.87 -20.11)"/><path class="cls-7" d="M396.09,396.23l4.41-10.63a1.05,1.05,0,0,1,1.37-.58h0a1.06,1.06,0,0,1,.57,1.38L398,397a1.07,1.07,0,0,1-1.38.57h0A1.06,1.06,0,0,1,396.09,396.23Z" transform="translate(-68.87 -20.11)"/><path class="cls-2" d="M427.71,276.92c-1.83-6.3-11-17-19.09-38.87-8.44-22.76-44.41-25.21-44.41-25.21l-14,7.47-14-7.47s-36,2.45-44.41,25.21c-8.12,21.89-17.25,32.57-19.09,38.87S280.86,324,309.3,329.8h81.89C419.64,324,429.55,283.23,427.71,276.92Z" transform="translate(-68.87 -20.11)"/><path class="cls-8" d="M365.77,213v11.19s-2.58,12.5-14.76,14.58a19,19,0,0,1-14.64-14.58V213Z" transform="translate(-68.87 -20.11)"/><path class="cls-4" d="M323.1,191s-4.16-26.15,5.79-29.33c2.71-.87.73-9.5,15.87-9.61,20.67-.14,37-2.92,34.25,39.3Z" transform="translate(-68.87 -20.11)"/><path class="cls-9" d="M336.2,193.89a7.14,7.14,0,1,0-7.14,7.15A7.14,7.14,0,0,0,336.2,193.89Z" transform="translate(-68.87 -20.11)"/><path class="cls-9" d="M379.72,193.89a7.15,7.15,0,1,0-7.15,7.15A7.15,7.15,0,0,0,379.72,193.89Z" transform="translate(-68.87 -20.11)"/><path class="cls-9" d="M374.82,181.79h-.05c-.29-.1-6-2-7.08-9.49l-3.13.88a47.76,47.76,0,0,1-26.45-.25l-2.5-.63a11.32,11.32,0,0,1-7.39,9.48h-.06l-.2,11.57c0,6.74,2.85,14.92,7.4,21.22a19.89,19.89,0,0,0,32,0c4.55-6.3,7.39-14.48,7.39-21.22V181.83Z" transform="translate(-68.87 -20.11)"/><rect class="cls-3" x="236.88" y="257.51" width="90.43" height="60.28" rx="7.58"/><circle class="cls-10" cx="281.82" cy="287.03" r="9.39"/><path class="cls-4" d="M313.65,365.58S433,300,447.07,321.47c20.35,31.06-10.75,46.7-121.56,76.35Z" transform="translate(-68.87 -20.11)"/><path class="cls-5" d="M280.76,398.36h0a14,14,0,0,1,7.57-18.27l27.56-11.42,10.7,25.85L299,405.93A14,14,0,0,1,280.76,398.36Z" transform="translate(-68.87 -20.11)"/><path class="cls-2" d="M324.88,390.35,304,399a9.48,9.48,0,1,1-7.25-17.51l20.85-8.64Z" transform="translate(-68.87 -20.11)"/><path class="cls-6" d="M324.78,390.16l-27.55,11.41a14,14,0,0,1-17.15-5.48,13.69,13.69,0,0,0,.68,2.27A14,14,0,0,0,299,405.93l27.56-11.41Z" transform="translate(-68.87 -20.11)"/><path class="cls-7" d="M315.66,390.59,311.26,380a1.06,1.06,0,0,0-1.38-.57h0a1.07,1.07,0,0,0-.57,1.38l4.41,10.64a1.06,1.06,0,0,0,1.37.57h0A1,1,0,0,0,315.66,390.59Z" transform="translate(-68.87 -20.11)"/><path class="cls-7" d="M309.18,393.28l-4.41-10.64a1.06,1.06,0,0,0-1.37-.57h0a1,1,0,0,0-.57,1.38l4.4,10.63a1,1,0,0,0,1.38.57h0A1.06,1.06,0,0,0,309.18,393.28Z" transform="translate(-68.87 -20.11)"/><path class="cls-7" d="M302,396.23l-4.4-10.63a1.06,1.06,0,0,0-1.38-.58h0a1.07,1.07,0,0,0-.57,1.38L300.1,397a1.06,1.06,0,0,0,1.37.57h0A1.06,1.06,0,0,0,302,396.23Z" transform="translate(-68.87 -20.11)"/><path class="cls-4" d="M131.57,317.86S100,267.39,109.74,260.08s19.38,22.39,24.38,17.63-17.44-47.21-6.84-56.34,9.81,21.87,18.81,27.63-4.87-42.24,5.9-49.74,16,16.38,16,16.38,11.94-47.52,28-38.21S171.33,234.6,180.88,233s19.37-17.79,27.65-6.91-46,38.59-37.28,37.87S195.37,252.42,198,262s-44,27-39.19,30.29,29.25-15.52,33.1-1.64S141.27,326.69,131.57,317.86Z" transform="translate(-68.87 -20.11)"/><path class="cls-3" d="M127.73,337.57a165.2,165.2,0,0,0,14.62-31.74c2-5.89,3.71-12,5.37-17.88.75-2.68,1.5-5.37,2.28-8a389.73,389.73,0,0,1,36.59-85.59l.61.36a388.72,388.72,0,0,0-36.51,85.43q-1.17,4-2.29,8c-1.65,5.9-3.37,12-5.37,17.91a165.7,165.7,0,0,1-14.69,31.87Z" transform="translate(-68.87 -20.11)"/><path class="cls-3" d="M162.22,244.18a.36.36,0,0,1-.13-.19,161.19,161.19,0,0,1-7.15-33.49.35.35,0,0,1,.32-.39.36.36,0,0,1,.39.32,161,161,0,0,0,7.11,33.34.36.36,0,0,1-.54.41Z" transform="translate(-68.87 -20.11)"/><path class="cls-3" d="M157.78,257.28a.32.32,0,0,1-.09-.08.36.36,0,0,1,.08-.5c9.8-7.15,19.93-14.56,30.8-20.47a26.9,26.9,0,0,1,6.47-2.76.36.36,0,0,1,.43.26.36.36,0,0,1-.27.43,26.69,26.69,0,0,0-6.29,2.69c-10.82,5.9-20.94,13.28-30.72,20.43A.35.35,0,0,1,157.78,257.28Z" transform="translate(-68.87 -20.11)"/><path class="cls-3" d="M150.7,278.79a.28.28,0,0,1-.1-.09c-4.13-6.22-9.36-14.51-13.12-23.52a182.7,182.7,0,0,1-6.33-18.88.35.35,0,0,1,.24-.44.36.36,0,0,1,.45.24,182,182,0,0,0,6.29,18.81A143.54,143.54,0,0,0,151.2,278.3a.36.36,0,0,1-.5.49Z" transform="translate(-68.87 -20.11)"/><path class="cls-3" d="M150.59,279.12a.36.36,0,0,1,.33-.63,6.16,6.16,0,0,0,3.19,0,52.55,52.55,0,0,0,8.44-2.62l1.53-.56c8.08-2.95,16.51-5.2,24.66-7.38a.37.37,0,0,1,.44.26.36.36,0,0,1-.26.43c-8.13,2.17-16.55,4.42-24.59,7.36l-1.53.56a55.16,55.16,0,0,1-8.56,2.65,6.87,6.87,0,0,1-3.57,0Z" transform="translate(-68.87 -20.11)"/><path class="cls-3" d="M141.94,307.49c-9.45-6.49-20.28-24-26.68-37a.35.35,0,0,1,.16-.48.37.37,0,0,1,.48.17c6.36,12.94,17.11,30.33,26.44,36.75a.35.35,0,1,1-.4.58Z" transform="translate(-68.87 -20.11)"/><path class="cls-3" d="M142.55,307.77l-.25-.19a.36.36,0,0,1,.45-.55c1.34,1.08,3.34.74,5.31.2l34.49-9.44a.36.36,0,0,1,.44.25.35.35,0,0,1-.25.43l-34.49,9.45C146.21,308.48,144.11,308.84,142.55,307.77Z" transform="translate(-68.87 -20.11)"/><path class="cls-2" d="M127.37,316.94s-54.72-23.71-50.8-35.3,28.7,7.49,30.13.72-41.18-29.06-37.61-42.6,20.49,12.47,31.19,12.12-28-32.09-23.35-44.39S99.39,212,99.39,212s-17.11-46,1.42-47.41,12.12,61.14,19.08,54.36,5.88-25.67,18.89-21.39-16,57.93-9.27,52.41,13.37-23.18,21-16.76-21,47.24-15.15,47.24,15.33-29.41,26.38-20.15S140.38,318.72,127.37,316.94Z" transform="translate(-68.87 -20.11)"/><path class="cls-3" d="M135.39,335.37a165.85,165.85,0,0,0-5.94-34.48c-1.7-6-3.74-12-5.72-17.79-.91-2.64-1.81-5.29-2.68-7.94a390.23,390.23,0,0,1-18.38-91.37l.71-.06a389.36,389.36,0,0,0,18.34,91.21c.88,2.65,1.78,5.29,2.68,7.93,2,5.81,4,11.82,5.73,17.83a165.76,165.76,0,0,1,6,34.63Z" transform="translate(-68.87 -20.11)"/><path class="cls-3" d="M110.86,238.75a.35.35,0,0,1-.22-.08,161.09,161.09,0,0,1-24.9-23.58.35.35,0,1,1,.54-.46,160.63,160.63,0,0,0,24.79,23.48.35.35,0,0,1,.07.5A.37.37,0,0,1,110.86,238.75Z" transform="translate(-68.87 -20.11)"/><path class="cls-3" d="M114.63,252.08a.25.25,0,0,1-.12,0,.35.35,0,0,1-.22-.45c4-11.47,8.19-23.33,13.79-34.37a27.14,27.14,0,0,1,3.78-6,.36.36,0,0,1,.53.48,26.66,26.66,0,0,0-3.67,5.79c-5.59,11-9.74,22.84-13.76,34.29A.36.36,0,0,1,114.63,252.08Z" transform="translate(-68.87 -20.11)"/><path class="cls-3" d="M121,273.85a.31.31,0,0,1-.13,0,143.82,143.82,0,0,1-24.18-11.95,184.12,184.12,0,0,1-15.93-12,.36.36,0,0,1,.45-.56,180.3,180.3,0,0,0,15.87,11.95,142.74,142.74,0,0,0,24.05,11.89.35.35,0,0,1,.2.46A.37.37,0,0,1,121,273.85Z" transform="translate(-68.87 -20.11)"/><path class="cls-3" d="M121.09,274.18a.36.36,0,0,1-.09-.71,6,6,0,0,0,2.64-1.79,53.66,53.66,0,0,0,5.48-6.95l.94-1.34c5-7,10.67-13.65,16.17-20.07a.35.35,0,0,1,.54.46c-5.48,6.41-11.15,13-16.12,20-.32.44-.63.88-.94,1.33a54.94,54.94,0,0,1-5.56,7,6.72,6.72,0,0,1-3,2Z" transform="translate(-68.87 -20.11)"/><path class="cls-3" d="M130.05,302.5c-11.49,0-30.36-8.3-43-15.41a.36.36,0,0,1-.13-.49.35.35,0,0,1,.48-.13c12.6,7.06,31.33,15.32,42.68,15.32a.36.36,0,0,1,0,.71Z" transform="translate(-68.87 -20.11)"/><path class="cls-3" d="M130.7,302.38l-.31,0a.35.35,0,0,1-.32-.38.36.36,0,0,1,.38-.33c1.72.14,3.18-1.28,4.5-2.84l23.1-27.36a.35.35,0,0,1,.54.46L135.5,299.27C134.13,300.89,132.6,302.38,130.7,302.38Z" transform="translate(-68.87 -20.11)"/><path class="cls-3" d="M103.15,325.38l8.74,54.08a15.83,15.83,0,0,0,15.63,13.3h26.62a15.83,15.83,0,0,0,15.63-13.3l8.74-54.08Z" transform="translate(-68.87 -20.11)"/><path class="cls-11" d="M178.51,325.38H103.15l1.21,7.49h58.1l-7.53,46.59a15.83,15.83,0,0,1-15.63,13.3h14.84a15.83,15.83,0,0,0,15.63-13.3l7.53-46.59h0Z" transform="translate(-68.87 -20.11)"/><path class="cls-3" d="M179.35,309.82h-77a7.9,7.9,0,0,0-7.87,7.88h0a7.89,7.89,0,0,0,7.87,7.87h77a7.89,7.89,0,0,0,7.87-7.87h0A7.9,7.9,0,0,0,179.35,309.82Z" transform="translate(-68.87 -20.11)"/><rect class="cls-12" x="241.16" y="64.21" width="171.1" height="52.85" rx="7.99"/><rect class="cls-4" x="253.56" y="87.89" width="27.96" height="21.23" rx="3.32"/><path class="cls-4" d="M346.08,105.6h-2.64v-4.18a7,7,0,0,0-14.07,0v4.18h-2.63v-4.18a9.67,9.67,0,1,1,19.34,0Z" transform="translate(-68.87 -20.11)"/><path class="cls-12" d="M339.36,115.82a3,3,0,1,0-4.4,2.55l-1,5.81h4.94l-1-5.81A3,3,0,0,0,339.36,115.82Z" transform="translate(-68.87 -20.11)"/><circle class="cls-4" cx="312.49" cy="92.22" r="4.84"/><circle class="cls-4" cx="330.95" cy="92.22" r="4.84"/><path class="cls-4" d="M423.13,112.33a4.84,4.84,0,1,1-4.84-4.84A4.84,4.84,0,0,1,423.13,112.33Z" transform="translate(-68.87 -20.11)"/><path class="cls-4" d="M441.59,112.33a4.84,4.84,0,1,1-4.83-4.84A4.84,4.84,0,0,1,441.59,112.33Z" transform="translate(-68.87 -20.11)"/><path class="cls-4" d="M460.06,112.33a4.84,4.84,0,1,1-4.84-4.84A4.84,4.84,0,0,1,460.06,112.33Z" transform="translate(-68.87 -20.11)"/></g></svg>